<svg xmlns="http://www.w3.org/2000/svg" viewBox="0 0 24 24" width="64" height="64">
  <defs>
    <linearGradient id="g" x1="0" x2="1" y1="0" y2="1">
      <stop offset="0" stop-color="#25D366"/>
      <stop offset="1" stop-color="#128C7E"/>
    </linearGradient>
  </defs>
  <rect width="24" height="24" rx="4" fill="url(#g)" />
  <path fill="#fff" d="M17.472 14.382c-.297-.149-1.758-.867-2.03-.967-.273-.099-.472-.148-.672.15-.198.297-.767.966-.94 1.164-.173.198-.347.223-.644.075-.297-.149-1.255-.462-2.39-1.475-.883-.788-1.48-1.761-1.653-2.059-.173-.297-.018-.458.13-.606.134-.133.298-.347.447-.52.149-.174.198-.298.298-.497.099-.198.05-.372-.025-.52-.075-.149-.672-1.611-.92-2.21-.242-.579-.487-.5-.672-.51l-.573-.01c-.198 0-.52.074-.792.372s-1.04 1.016-1.04 2.479 1.065 2.876 1.213 3.074c.149.198 2.095 3.2 5.076 4.487 2.981 1.289 2.981.86 3.52.808.54-.049 1.758-.718 2.007-1.413.248-.695.248-1.29.173-1.413-.074-.124-.272-.198-.57-.347z"/>
</svg>
